<svg width="85px" height="85px" viewBox="0 0 85 85" version="1.1" xmlns="http://www.w3.org/2000/svg" xmlns:xlink="http://www.w3.org/1999/xlink"><defs><rect id="path-1" x="0" y="0" width="56" height="85"></rect><linearGradient x1="0%" y1="0%" x2="100%" y2="0%" id="linearGradient-4"><stop stop-color="#434343" offset="0%"></stop><stop stop-color="#4B4B4B" offset="100%"></stop></linearGradient><linearGradient x1="0%" y1="0%" x2="100%" y2="0%" id="linearGradient-5"><stop stop-color="#A00000" offset="0%"></stop><stop stop-color="#FF0000" offset="100%"></stop></linearGradient><linearGradient x1="0%" y1="0%" x2="100%" y2="0%" id="linearGradient-6"><stop stop-color="#39737B" offset="0%"></stop><stop stop-color="#5CD2DF" offset="100%"></stop></linearGradient></defs><g stroke="none" stroke-width="1" fill="none" fill-rule="evenodd"><g transform="translate(15.000000, -1.000000)"><mask id="mask-2" fill="white"><use xlink:href="#path-1"></use></mask><g mask="url(#mask-2)"><g transform="translate(6.363636, -1.268657)"><g><path d="M0,11.840796 C0,11.840796 44.5454545,7.40049751 44.5454545,0 L44.5454545,17.761194 C44.5454545,17.761194 44.5454545,25.1616915 0,29.60199 L0,47.3631841 L0,11.840796 Z"  fill="url(#linearGradient-4)" fill-rule="nonzero" transform="translate(22.272727, 23.681592) scale(-1, 1) rotate(-180.000000) translate(-22.272727, -23.681592) "></path><path d="M0,35.5223881 C0,35.5223881 44.5454545,31.0820896 44.5454545,23.681592 L44.5454545,41.4427861 C44.5454545,41.4427861 44.5454545,48.8432836 0,53.2835821 L0,71.0447761 L0,35.5223881 Z" fill="url(#linearGradient-4)" fill-rule="nonzero" transform="translate(22.272727, 47.363184) scale(-1, 1) rotate(-180.000000) translate(-22.272727, -47.363184) "></path></g><g transform="translate(0.000000, 5.074627)"><path d="M0,12.0522388 C0,12.0522388 44.5454545,7.53264925 44.5454545,0 L44.5454545,18.0783582 C44.5454545,18.0783582 44.5454545,25.6110075 0,30.130597 L0,48.2089552 L0,12.0522388 Z" fill="url(#linearGradient-6)" fill-rule="nonzero"></path><path d="M0,36.1567164 C0,36.1567164 44.5454545,31.6371269 44.5454545,24.1044776 L44.5454545,42.1828358 C44.5454545,42.1828358 44.5454545,49.7154851 0,54.2350746 L0,72.3134328 L0,36.1567164 Z" fill="url(#linearGradient-6)" fill-rule="nonzero"></path><path d="M0,60.261194 C0,60.261194 44.5454545,55.7416045 44.5454545,48.2089552 L44.5454545,66.2873134 C44.5454545,66.2873134 44.5454545,73.8199627 0,78.3395522 L0,96.4179104 L0,60.261194 Z" fill="url(#linearGradient-6)" fill-rule="nonzero"></path></g></g></g></g></g></svg>