<svg width="85px" height="85px" viewBox="0 0 85 85" version="1.1" xmlns="http://www.w3.org/2000/svg"><g stroke="none" stroke-width="1" fill="none" fill-rule="evenodd"><g fill-rule="nonzero"><g transform="translate(12.000000, 2.000000)"><path d="M19.183327,61.4235105 C19.183327,61.4235105 16.0927127,63.3086723 21.3828119,63.9465864 C27.7916185,64.7134551 31.0670854,64.6034778 38.1296339,63.2014387 C38.1296339,63.2014387 39.9864439,64.4226212 42.5796127,65.4803239 C26.7472446,72.5975243 6.74784437,65.0680805 19.183327,61.4235105" fill="#4CA5AF"></path><path d="M17.1523256,52.7665056 C17.1523256,52.7665056 13.6984279,55.3506468 18.9733216,55.9021176 C25.7946719,56.6134095 31.1816403,56.6715862 40.5031676,54.8573527 C40.5031676,54.8573527 41.7924606,56.1785116 43.8197956,56.9009998 C24.746687,62.5382079 3.5026748,57.3455572 17.1523256,52.7665056" fill="#4CA5AF"></path><path d="M33.2898906,38.5120507 C37.1335976,42.9771464 32.2799939,46.9951691 32.2799939,46.9951691 C32.2799939,46.9951691 42.0398225,41.9115827 37.5575738,35.5457223 C33.3712923,29.6091648 30.1609722,26.6595231 47.5403443,16.489533 C47.5403443,16.489533 20.2604625,23.364012 33.2898906,38.5120507" fill="#1C8789"></path><path d="M54.2563689,67.8505555 C54.2563689,67.8505555 56.532228,69.6570016 51.7499304,71.0545159 C42.656255,73.7082886 13.901083,74.5096443 5.91301706,71.1602489 C3.04151277,69.956857 8.42639675,68.2868608 10.1202763,67.9364374 C11.8868219,67.5674168 12.8963385,67.6361641 12.8963385,67.6361641 C9.7029342,65.4690557 -7.74452373,71.8913946 4.0338932,73.7306471 C36.1553498,78.748785 62.5882431,71.4709701 54.2563689,67.8505555" fill="#4CA5AF"></path><path d="M20.7745986,43.7109862 C20.7745986,43.7109862 6.11812587,47.3506463 15.5843758,48.672341 C19.581319,49.2318342 27.5491228,49.1052551 34.9709305,48.4550886 C41.0364423,47.9201385 47.12695,46.7827448 47.12695,46.7827448 C47.12695,46.7827448 44.9881756,47.7403826 43.4408246,48.8450521 C28.5574331,52.9376245 -0.19451871,51.0337114 8.08279875,46.8475114 C15.0829376,43.3096601 20.7745986,43.7109862 20.7745986,43.7109862" fill="#4CA5AF"></path><path d="M47.0176174,58.5589978 C62.1463733,50.7993448 55.1514319,43.3423894 50.2690567,44.3470189 C49.0723706,44.5928667 48.5387955,44.805892 48.5387955,44.805892 C48.5387955,44.805892 48.9830429,44.1189768 49.8315469,43.8216425 C59.4904516,40.469874 66.9187733,53.7072571 46.7135557,58.9500805 C46.7135557,58.9502949 46.9476332,58.7437055 47.0176174,58.5589978" fill="#4CA5AF"></path><path d="M37.9619675,0 C37.9619675,0 46.2921791,8.27895025 30.0611238,21.0096369 C17.0454653,31.2218379 27.0931483,37.0445614 30.0557216,43.6972625 C22.4582661,36.8869816 16.8827507,30.8918649 20.6232426,25.3121663 C26.113403,17.1216669 41.323008,13.1506132 37.9619675,0" fill="#1C8789"></path><path d="M22.0590017,79.3158167 C36.4667145,80.2185961 58.5913894,78.8149292 59.1153846,72.1417069 C59.1153846,72.1417069 58.1081493,74.6714735 47.2081857,76.6805113 C34.9109015,78.9457974 19.7439347,78.681317 10.7482517,77.2295244 C10.7484674,77.2293134 12.5897824,78.7214218 22.0590017,79.3158167" fill="#4CA5AF"></path></g></g></g></svg>