<svg width="85px" height="85px" viewBox="0 0 85 85" version="1.1" xmlns="http://www.w3.org/2000/svg"><g stroke="none" stroke-width="1" fill="none" fill-rule="nonzero"><g transform="translate(9.000000, 5.000000)"><path d="M66.8871992,22.0625 C66.8866758,20.8046875 66.6163203,19.6932292 66.0695898,18.7393229 C65.532543,17.8013021 64.7282812,17.0151042 63.6494766,16.3934896 C54.7444961,11.284375 45.8308789,6.19088542 36.9287773,1.0765625 C34.5288164,-0.302083333 32.201875,-0.251822917 29.8197109,1.14661458 C26.2752539,3.2265625 8.52941406,13.3429687 3.24138672,16.390625 C1.063625,17.6450521 0.00392578125,19.5648438 0.00340234375,22.0601563 C0,32.3348958 0.00340234375,42.609375 0,52.884375 C0.0005234375,54.1145833 0.259363281,55.2044271 0.782015625,56.1440104 C1.31932422,57.1104167 2.13483984,57.9182292 3.23850781,58.5539063 C8.52679687,61.6015625 26.2749922,71.7171875 29.8186641,73.7976562 C32.201875,75.196875 34.5288164,75.246875 36.9295625,73.8677083 C45.8319258,68.753125 54.7460664,63.6598958 63.6523555,58.5507812 C64.7560234,57.9153646 65.5715391,57.1070312 66.1088477,56.1414063 C66.6307148,55.2018229 66.8900781,54.1119792 66.8906016,52.8815104 C66.8906016,52.8815104 66.8906016,32.3375 66.8871992,22.0625" fill="#4AA5B1"></path><path d="M33.5476328,37.3721354 L0.782015625,56.1440104 C1.31932422,57.1104167 2.13483984,57.9182292 3.23850781,58.5539062 C8.52679687,61.6015625 26.2749922,71.7171875 29.8186641,73.7976562 C32.201875,75.196875 34.5288164,75.246875 36.9295625,73.8677083 C45.8319258,68.753125 54.7460664,63.6598958 63.6523555,58.5507812 C64.7560234,57.9153646 65.5715391,57.1070312 66.1088477,56.1414063 L33.5476328,37.3721354" fill="#00515A"></path><path d="M23.8428398,42.9325521 C25.7494609,46.2445313 29.3336992,48.4783854 33.4453008,48.4783854 C37.5822891,48.4783854 41.1869414,46.2161458 43.0838789,42.86875 L33.5476328,37.3721354 L23.8428398,42.9325521" fill="#00515A"></path><path d="M66.8871992,22.0625 C66.8866758,20.8046875 66.6163203,19.6932292 66.0695898,18.7393229 L33.5476328,37.3721354 L66.1088477,56.1414063 C66.6307148,55.2018229 66.8900781,54.1119792 66.8906016,52.8815104 C66.8906016,52.8815104 66.8906016,32.3375 66.8871992,22.0625" fill="#00676A"></path><polyline fill="#FFFFFF" points="65.0967812 38.7138021 62.5523516 38.7138021 62.5523516 41.2460938 60.0073984 41.2460938 60.0073984 38.7138021 57.4632305 38.7138021 57.4632305 36.1822917 60.0073984 36.1822917 60.0073984 33.6505208 62.5523516 33.6505208 62.5523516 36.1822917 65.0967812 36.1822917 65.0967812 38.7138021"></polyline><polyline fill="#FFFFFF" points="55.8123086 38.7138021 53.2681406 38.7138021 53.2681406 41.2460938 50.7237109 41.2460938 50.7237109 38.7138021 48.1792812 38.7138021 48.1792812 36.1822917 50.7237109 36.1822917 50.7237109 33.6505208 53.2681406 33.6505208 53.2681406 36.1822917 55.8123086 36.1822917 55.8123086 38.7138021"></polyline><path d="M43.0838789,42.86875 C41.1869414,46.2161458 37.5822891,48.4783854 33.4453008,48.4783854 C29.3336992,48.4783854 25.7494609,46.2445312 23.8428398,42.9325521 C22.9166172,41.3231771 22.3840195,39.4598958 22.3840195,37.4721354 C22.3840195,31.39375 27.3365234,26.4661458 33.4453008,26.4661458 C37.5304687,26.4661458 41.0958633,28.6721354 43.0119062,31.9502604 L52.6800586,26.4106771 C48.8372422,19.8101562 41.6627461,15.3695312 33.4453008,15.3695312 C21.1769727,15.3695312 11.2319219,25.2653646 11.2319219,37.4721354 C11.2319219,41.4768229 12.3026133,45.2322917 14.1739023,48.4716146 C18.0070352,55.1070312 25.2019453,59.575 33.4453008,59.575 C41.7038359,59.575 48.91,55.0890625 52.7376367,48.4341146 L43.0838789,42.86875" fill="#FFFFFF"></path></g></g></svg>