<svg width="125px" height="85px" viewBox="0 0 125 85" version="1.1" xmlns="http://www.w3.org/2000/svg"><defs><linearGradient x1="-91.3378645%" y1="159.9507%" x2="198.862124%" y2="12.7805149%" id="linearGradient-1"><stop stop-color="#61D9E1" offset="0%"></stop><stop stop-color="#32B1BF" offset="100%"></stop></linearGradient></defs><g stroke="none" stroke-width="1" fill="none" fill-rule="nonzero"><g transform="translate(1.000000, 12.000000)"><path d="M30.1785073,51.8137816 C32.7573755,47.7707295 34.5929041,44.3673145 34.257469,44.250643 C33.922032,44.1339734 32.7613807,44.3442852 31.6782444,44.718002 C28.4161846,45.8435196 27.7458969,45.5451897 25.3094625,41.8833894 C22.673232,37.9213158 22.5788314,37.5124091 23.9533106,36.0091798 C24.851121,35.0272809 24.7971268,34.7983937 23.3237197,33.3400737 C22.4373385,32.4627669 21.7121177,31.4807852 21.7121177,31.1578913 C21.7121177,30.6147847 15.6748223,28.1521054 6.12974838,24.8016728 C3.9655289,24.0420054 2.19480519,23.2921057 2.19480519,23.1352294 C2.19480519,22.9783472 6.76702688,22.9415011 12.3552969,23.0533447 L22.5157924,23.2566942 L23.5075982,21.7084243 C27.6991125,15.165224 34.0289333,9.25514156 36.8453353,9.25514156 C37.4318158,9.25514156 38.6222333,9.80834947 39.4906982,10.4844904 C40.9048788,11.5854927 41.0991073,12.2677234 41.3510762,17.0192161 C41.5058099,19.9371749 41.8233268,22.5135448 42.0566567,22.7444893 C42.2899846,22.97543 43.0302327,22.67233 43.7016521,22.0709272 C44.5590677,21.3029188 45.4616859,21.0947028 46.7343034,21.371353 C48.0526593,21.6579484 48.8045177,21.4617715 49.4945723,20.6511231 C50.5296892,19.4351331 55.710019,11.2155189 55.710019,10.7891103 C55.710019,10.6441963 56.7356859,8.90779969 57.9892846,6.93045191 C59.2428736,4.95310412 60.686682,2.67307534 61.1977398,1.86372414 C62.106619,0.424355317 62.2490255,0.594696801 67.7094775,9.65302291 C73.3473755,19.0057114 76.3817508,22.456901 77.9008476,21.2443314 C78.9609775,20.3981075 84.5243314,20.3500881 86.0792489,21.1737358 C86.9630119,21.6418661 87.5245398,21.6357289 88.0126593,21.1525999 C89.0256599,20.149974 91.4509359,20.3246005 92.0848905,21.4458222 C92.5843573,22.3291756 92.7117424,22.3291756 93.4524502,21.4458222 C93.9016827,20.9100656 95.2322275,20.4717284 96.4092093,20.4717284 C98.0726197,20.4717284 98.7066171,20.8137105 99.2560982,22.0073422 L99.9630093,23.5429541 L110.890028,23.1600711 C116.899889,22.9494796 121.817049,22.9119471 121.817049,23.0766709 C121.817049,23.2413831 117.354826,25.0186482 111.900995,27.0261444 C106.447166,29.0336329 101.894437,30.7364057 101.783818,30.8100728 C101.673198,30.8837399 101.919884,32.6403704 102.33201,34.7136902 C103.404329,40.1083667 102.70498,43.7036493 100.008707,46.6575345 C98.7991612,47.9826494 96.8366197,49.3846359 95.6474995,49.7730603 C94.4583794,50.1614847 93.4854658,50.618754 93.4854658,50.7892081 C93.4854658,50.9596641 94.7546703,53.0410279 96.3059236,55.4144591 C97.8571749,57.787896 98.893482,59.7297981 98.6088171,59.7297981 C98.1441989,59.7297981 86.8289723,55.4026726 69.2343405,48.4965259 C65.7650547,47.1347866 62.6057372,46.0206295 62.2136372,46.0206295 C61.4824106,46.0206295 55.1681372,48.3896183 36.6504755,55.6114188 C25.9117905,59.7994605 25.4896632,59.9445408 25.4896632,59.4472884 C25.4896632,59.291914 27.5996431,55.8568318 30.1785073,51.8137816 Z M47.5253411,49.5652473 C53.2388781,47.3681605 58.9051924,45.2210734 60.1171554,44.7939462 C62.2017034,44.0593017 62.8988138,44.2434858 73.0237671,48.2040575 C78.9104392,50.5067427 84.7184138,52.7497318 85.9303749,53.1884662 C87.1423379,53.6272102 89.6400833,54.5806715 91.4809106,55.3072757 C93.5799424,56.13579 94.6528281,56.3352755 94.3583937,55.8422939 C91.0693612,50.3354094 90.9688223,50.2436258 88.6894008,50.666866 C85.9399963,51.1773741 84.2324586,50.6536585 83.3549158,49.0307651 C82.7858664,47.9783748 82.9595703,47.4636808 84.3785041,45.9977968 C86.4919203,43.8144556 86.1599138,41.8058199 83.4348112,40.2884883 C82.3891671,39.7062798 81.0697612,38.2671175 80.5027944,37.090347 L79.4719456,34.9507641 L77.2617814,36.4352658 C74.5453047,38.2598389 71.2324398,38.3538513 68.4667866,36.6848551 L66.4281736,35.454599 L64.0596521,37.047761 C61.6879729,38.6430477 58.9574937,38.8491505 56.1822132,37.642373 C55.4176067,37.3098926 55.0804281,37.4391219 55.0804281,38.0646434 C55.0804281,38.5603937 54.3588132,39.2914288 53.4768288,39.6891736 C50.8325041,40.8816658 48.251945,40.5650094 46.5023567,38.8333362 L44.9070112,37.2543266 L43.619384,38.8745186 C42.9111911,39.765623 41.2720749,41.1568121 39.9769067,41.9660376 C38.3737281,42.9677227 36.3890995,45.4119114 33.7594262,49.6232369 C31.6349801,53.0254662 29.8967976,55.9822068 29.8967976,56.1937854 C29.8967976,56.4053564 31.5258658,55.8992945 33.5169444,55.0692011 C35.5080268,54.2391116 41.8118041,51.762334 47.5253411,49.5652473 Z M95.9865015,47.201688 C100.322002,44.7899512 101.326938,40.3283654 99.4105632,31.9998984 C97.8089918,25.0395161 97.0094918,22.7617189 96.0608995,22.4565578 C95.4045969,22.2454245 95.3037424,22.4771866 95.6735138,23.3466383 C98.072571,28.9878308 98.2059093,31.8200062 96.1099203,32.6160801 C94.6700158,33.1629716 93.1425716,31.113942 91.9412801,27.0239483 C91.0110619,23.8568688 90.0383041,22.4295894 89.3048119,23.1555709 C89.1291814,23.3294088 89.4369833,24.3357965 89.9888197,25.3920044 C90.5406502,26.4482008 91.2973671,29.6289275 91.6704112,32.4602816 C92.0434573,35.2916299 92.7640184,38.2563047 93.2716573,39.0484452 C94.5908742,41.1070073 96.6907379,40.610904 98.0490249,37.9197636 C99.3919593,35.2590275 99.543734,37.0313297 98.2378495,40.1247479 C96.8818612,43.3368486 92.854521,44.3000217 88.1889833,42.5280184 C87.4422366,42.2444019 87.1895567,42.5379482 87.1895567,43.6889244 C87.1895567,44.5361933 86.6175736,45.9491353 85.9184762,46.8287849 L84.6473956,48.4281592 L86.3906703,48.7195401 C89.4003034,49.2226 93.5270236,48.5698382 95.9865015,47.201688 Z M33.5774431,41.8922028 C42.6280242,39.3173155 44.2453418,36.3140169 41.2389073,27.6651395 C40.5411444,25.6578303 39.9702521,23.4985614 39.9702521,22.8667543 C39.9702521,20.7155449 38.8770989,21.7095811 38.0578242,24.6057947 C36.9743119,28.4360921 33.7153924,31.6916812 30.9775982,31.6787841 C28.5999093,31.6675626 27.8251612,31.2391609 26.8430956,29.3924994 C25.0805995,26.0783152 27.0018015,20.9921392 31.9020969,15.9993606 C35.4912482,12.3424589 37.4518885,12.0112759 37.4518885,15.0619065 C37.4518885,19.8191575 34.1379911,26.8223225 32.3921956,25.754411 C31.5385495,25.2322301 31.6769918,22.9263597 32.6682775,21.1558642 C33.5112677,19.650242 33.3399931,17.3560116 32.3846021,17.3560116 C31.2767664,17.3560116 29.0835366,21.3494941 28.7937229,23.8943569 C28.5375249,26.1441195 28.6977112,26.6911594 29.7807073,27.2648225 C33.5759879,29.2751993 38.5479755,23.139556 38.7984015,16.136605 C38.9299028,12.4590963 38.210721,11.4241044 35.9193638,11.9933105 C32.5845346,12.821729 23.6008905,24.292042 23.6008905,27.7215269 C23.6008905,30.4040602 24.9620664,32.2906103 27.3583456,32.9292602 C31.4325385,34.0150954 35.3717333,32.0859285 38.1628846,27.6378896 L39.3359528,25.7684553 L39.3385242,28.308199 C39.3416801,31.9858271 36.9178379,33.9242663 29.2674521,36.3614927 C27.3629411,36.9682286 25.7252469,37.5288462 25.6281405,37.6073124 C25.2734859,37.8938904 28.8789307,42.9049166 29.4397846,42.9049166 C29.7578275,42.9049166 31.6198788,42.4491917 33.5776866,41.8922028 L33.5774431,41.8922028 Z M88.1067015,37.3264184 C89.0151697,36.3328468 89.1753073,35.2535074 88.9805567,31.4364002 C88.7687275,27.2845528 88.5368956,26.5508705 86.9036547,24.86359 C83.9525859,21.8148826 80.3073112,22.5926145 82.4410203,25.8157151 C83.5752853,27.5291001 84.9589554,27.2364659 84.4701911,25.3865556 C84.0808456,23.9129516 84.8072002,23.8742314 86.0731242,25.3010982 C88.4483859,27.9783427 87.8488398,31.6883263 85.0409294,31.6883263 C83.1187554,31.6883263 82.5197703,30.8723987 81.2668651,26.5473864 C80.695971,24.5766958 80.0007015,22.9643068 79.7218125,22.9643068 C78.7927885,22.9643068 78.3790456,23.7758035 78.9567716,24.4648349 C79.2705794,24.8390992 80.1396638,27.5288379 80.8880781,30.4420381 C82.7716554,37.7738408 85.4030119,40.2833634 88.1067015,37.3264184 Z M52.3071073,37.4428663 C52.6947268,37.1854643 52.8719937,35.9680726 52.7120392,34.661961 C52.4540216,32.5551173 52.3094508,32.4014319 51.1589158,33.010873 C49.5055398,33.8866702 47.7287099,32.2273858 47.1260158,29.2447835 C46.6687944,26.9820795 46.5288872,27.0265204 49.8583067,28.3768491 C50.2757508,28.5461521 51.3381853,27.9711721 52.2192736,27.0991058 C53.8311073,25.5037767 54.361745,23.5874509 53.1916554,23.5874509 C52.8453814,23.5874509 52.5620645,23.8678667 52.5620645,24.210595 C52.5620645,25.1070152 50.8395366,24.979874 50.4514184,24.0548099 C50.225008,23.5151739 49.7427034,23.7066116 48.8814541,24.677954 C48.1977171,25.4490956 47.3626106,26.0800293 47.0256599,26.0800293 C46.6887073,26.0800293 46.2336599,25.4490956 46.0144495,24.677954 C45.6303034,23.3266304 45.5832171,23.3181062 44.7136632,24.4423994 C43.951858,25.4273794 43.9450456,25.7411379 44.669908,26.4585432 C45.4375612,27.2183398 46.8957814,32.4107987 46.8957814,34.3844875 C46.8957814,36.8387082 50.3105859,38.7686734 52.3071385,37.4428663 L52.3071073,37.4428663 Z M63.7895275,34.18913 C66.1555671,31.8473178 66.8566418,28.3370569 65.5679879,25.2844548 C64.5608138,22.8986239 62.8125346,22.0056821 60.3474463,22.6180442 C58.5157651,23.0730596 55.7260612,28.3592822 55.7161729,31.3938816 C55.7007444,36.1233332 60.2454969,37.6968651 63.7895275,34.18913 Z M59.4875645,30.4420381 C58.7950125,29.7565776 58.2373924,28.4246083 58.2484047,27.4821026 C58.2665995,25.9242616 58.3444729,25.8676042 59.1048054,26.8589585 C60.0446703,28.0844019 61.7147995,28.2966805 62.3546255,27.2720202 C62.5872853,26.8994313 62.4623431,26.282513 62.0769892,25.901105 C61.0871216,24.9213734 61.2070651,23.5874509 62.2850255,23.5874509 C63.4833444,23.5874509 65.1538807,26.0004294 65.1538807,27.7313159 C65.1538807,29.0051644 62.5348418,31.6883263 61.2914314,31.6883263 C60.9918502,31.6883263 60.1801145,31.1274947 59.4875645,30.4420381 Z M76.3087924,34.0251139 C78.9212742,31.2095741 78.6666677,26.8722315 75.7052372,23.7432379 C74.1759054,22.1273705 70.7780333,21.8487749 69.3873444,23.2252256 C68.1040437,24.4953857 66.8228021,29.4902216 67.298795,31.3673046 C68.3139677,35.3706629 73.6105632,36.9330716 76.3087924,34.0251139 Z M70.9602892,29.4719875 C69.926608,28.7553804 69.5714431,27.9006324 69.6009268,26.2004818 C69.6339171,24.2993071 69.734232,24.127806 70.1778327,25.2144202 C70.8295982,26.8109525 72.1965833,27.4138747 73.3956521,26.6336787 C74.1393268,26.1497958 74.1046047,25.921057 73.1811638,25.2205574 C71.9496268,24.2863464 71.709395,22.9643068 72.7711671,22.9643068 C73.7205775,22.9643068 77.116106,26.6405582 77.116106,27.6684539 C77.116106,28.6716775 74.7049262,30.4420381 73.3385625,30.4420381 C72.8001112,30.4420381 71.7298807,30.0055114 70.9602892,29.4719875 Z M107.966053,26.7169439 L114.576757,24.2611518 L107.493859,24.2358454 C101.155053,24.2132172 100.411864,24.3251302 100.419557,25.301075 C100.427368,26.2897241 101.0684,29.2120327 101.271381,29.184214 C101.317593,29.1778705 104.330168,28.0676024 107.966053,26.7169188 L107.966053,26.7169439 Z M21.5712288,26.277471 L22.2468619,24.2939122 L16.3117593,24.0964666 C13.0474585,23.9878719 10.3772949,24.0709906 10.3780749,24.2811868 C10.3792047,24.5887445 20.6066275,28.543661 20.8316606,28.3235583 C20.8667937,28.2891609 21.199632,27.3684292 21.5712288,26.277471 Z M62.2678262,20.1293336 C63.6639307,20.3502944 65.2385684,20.9158537 65.7670262,21.3861397 C66.5876995,22.1164729 66.9446781,22.066695 68.2141827,21.0448941 C69.031669,20.3869284 70.0941034,19.8485881 70.5751495,19.8485881 C71.0561995,19.8485881 71.4497898,19.7110988 71.4497898,19.5430471 C71.4497898,18.9628458 62.3836456,4.27004492 62.0378801,4.28988705 C61.6317112,4.31319243 52.3393028,19.7316871 52.0532099,20.8570041 C51.9331437,21.3292972 52.309971,21.5036345 53.0415814,21.3142734 C53.6919112,21.1459499 54.5910931,21.4460131 55.0397508,21.9810814 C55.7674262,22.8488962 56.0646366,22.7797582 57.7924807,21.3407636 C59.4340008,19.9736585 60.1166625,19.7888708 62.2678262,20.1293336 Z" fill="#5D5D5D"></path><path d="M55.1080632,22.0415352 C54.735619,21.6696096 54.5875671,21.5614121 54.2779827,21.4348995 C53.8712469,21.2686892 53.4296255,21.2239205 53.015195,21.3068907 C52.6454392,21.3809164 52.542919,21.3888872 52.3757625,21.3565972 C52.0967547,21.3027009 51.5,21 51,20.3123435 C50.5,19.624687 50.0054429,19.0704179 51.5,16.5 C54.5357857,11.2788879 61.0491584,1.40214361 61.5,1 C61.5499305,0.955461941 62.0516234,0.955461941 62.1017818,1 C62.370161,1.2383091 65.9690041,6.03858781 68.1243599,9.5 C70.4171531,13.1821333 75.293059,18.9336159 75.5,20.5744366 C75.5562165,21.0201735 74.5,20.3123435 73,19.9865652 C71.5,19.6607868 71.5395773,19.9429322 71,19.9865652 C70.3294299,20.0407912 69.1848969,20.2813087 68.1243599,21.0964111 C67.6203755,21.4837635 67.4052833,21.6284388 67.1599534,21.7450987 C66.9555482,21.8422964 66.9384755,21.8462028 66.7180301,21.8462028 C66.5010794,21.8462028 66.4790801,21.8414018 66.3096736,21.7572632 C66.209908,21.707707 66.0165521,21.5742282 65.873008,21.4558194 C65.4486288,21.1057508 64.9381028,20.8511388 64.1057411,20.5744366 C63.0479547,20.2227966 61.9152463,20.0117385 60.9507716,19.9865652 C60.1892119,19.9666903 59.8380424,20.0343783 59.2606379,20.3123435 C58.7892327,20.5392776 58.5620255,20.7004922 57.4830892,21.5736035 C56.3856034,22.4617212 55.9958645,22.6460249 55.6004918,22.4638576 C55.5029431,22.4189115 55.3826918,22.3157811 55.1080632,22.0415352 Z" fill="url(#linearGradient-1)"></path><path d="M21.7545166,31.4224854 C21.7545166,31.9224854 2.78168016,23.9976948 0.987064556,22.9186832 C0.73936187,22.7697559 0.719346627,22.7471282 0.790036176,22.6959673 C1.20046908,22.3989277 5.26518616,22.2511637 9.85932967,22.3662767 C11.6915068,22.4121856 22.2545166,22.4694492 22.7545166,22.6959673 C23.2545166,22.9224854 21.8370492,25.5379744 21.5,26.8861711 C21,28.8861711 21.7545166,30.9224854 21.7545166,31.4224854 Z" fill="url(#linearGradient-1)"></path><path d="M100,24 C100,23.4694122 99.5693266,23.0522786 101.5,23 C102.474702,22.9736062 109.32285,22.9773525 112.5,23 L122.5,23 L113.5,26.5 C108.611769,28.3134595 102,31.5 101.5,31 C101,30.5 101,28.5 100.5,27 C100,25.5 100,25.5 100,24 Z" fill="url(#linearGradient-1)"></path><path d="M25.4187688,59.4687707 C25.4187688,59.3201563 26.0555675,58.2091207 27.6695383,55.541804 C31.5366513,49.1508488 31.482168,45.9587183 36.03125,43.0151716 C40.580332,40.071625 43.061395,39.5870094 44.2190444,38.1407517 L44.9328281,37.2490187 L45.8951463,38.1854066 C47.5797905,39.8246599 48.5953995,40.2998971 50.433556,40.3090826 C52.681721,40.3203235 55.1436515,39.0773902 55.1436515,37.9311532 C55.1436515,37.6728257 55.3295034,37.4062537 55.5096067,37.4062537 C55.5858379,37.4062537 56.0193846,37.5380686 56.473045,37.6991771 C57.6554969,38.119099 58.3490736,38.2709527 59.3189775,38.3222731 C60.2813112,38.3731924 60.9842658,38.2894182 61.9212184,38.0121548 C62.8417918,37.7397368 63.3719502,37.4609001 64.9598541,36.4139836 C65.7600359,35.8864195 66.440284,35.4547767 66.471519,35.4547767 C66.5027521,35.4547767 67.0803515,35.7862101 67.755071,36.1912952 C68.4297905,36.5963804 69.2405424,37.0360615 69.5567444,37.1683642 C71.712969,38.070559 74.0420268,38.0116978 76.1745223,37.0011185 C76.5559411,36.8203644 77.4539892,36.2817928 78.1701846,35.8042919 C78.886382,35.326791 79.4824177,34.9471029 79.4947099,34.9605418 C79.5070021,34.9739806 79.778356,35.5237025 80.0977177,36.1821464 C80.4170814,36.8405902 80.8182924,37.5832421 80.9893002,37.8324824 C81.7295619,38.9114073 82.5820041,39.7126563 83.7328255,40.4112529 C84.9174788,41.1303877 85.9246571,42.0861588 86,43.0151716 C86.0747409,43.9367439 85.6724545,44.7143746 84.5,46 C83.5849084,47.0034223 83.0750911,47.4348905 83.0774619,47.9920183 C83.0798385,48.5497457 83.4088314,49.1929459 83.987132,49.7704615 C84.9232353,50.7052914 85.8709987,50.75612 88.03125,50.40625 C88.5132136,50.3281926 93.0593045,49.4693031 94.03125,50.90625 C94.7020636,51.8979995 99.03125,59.2860751 99.03125,59.40625 C99.03125,59.4687341 99,59.90625 98.53125,59.90625 C98.0625,59.90625 93.1446104,58.2287002 92.5,58 C91.6528896,57.6994567 80.9355643,53.2313765 77.53125,51.90625 C68.4409578,48.3678658 64.9939487,46.8521107 63.53125,46.40625 C61.9505675,45.9244263 61.9052084,46.1821734 61.03125,46.40625 C59.9442448,46.6849498 45.6828955,52.0956892 37.03125,55.541804 C32.7589403,57.2435491 27.3306662,59.6891801 26.53125,59.90625 C26.1074799,60.0213206 25.7366528,59.8754941 25.4187688,59.4687707 Z" fill="url(#linearGradient-1)"></path></g></g></svg>