<svg width="85px" height="85px" viewBox="0 0 85 85" version="1.1" xmlns="http://www.w3.org/2000/svg"><g stroke="none" stroke-width="1" fill="none" fill-rule="evenodd"><g transform="translate(10.000000, 6.000000)"><path d="M22.5085098,45.4663212 C25.0369493,45.4663212 27.0867052,47.5686394 27.0867052,50.161916 L27.0867052,70.304735 C27.0867052,72.8980116 25.0369493,75 22.5085098,75 C19.9803918,75 17.9306358,72.8980116 17.9306358,70.304735 L17.9306358,50.161916 C17.9306358,47.5689691 19.9803918,45.466651 22.5085098,45.466651 L22.5085098,45.4663212 Z" fill="#43B1BD" fill-rule="nonzero"></path><path d="M12.2366216,20.984456 C12.2213844,21.1621825 12.2080925,21.3418838 12.2080925,21.5235599 L12.2080925,51.986222 C12.2080925,55.2623149 14.7624186,57.9015544 17.933362,57.9015544 L48.4478167,57.9015544 C51.6190843,57.9015544 54.1734104,55.2619858 54.1734104,51.986222 L54.1734104,21.5235599 C54.1734104,21.3418838 54.1669265,21.1615243 54.1520136,20.984456 L12.2366216,20.984456 Z" fill="#43B1BD" fill-rule="nonzero"></path><path d="M43.4088762,45.075412 C45.9573077,45.075412 48.0232707,47.1778944 48.0232707,49.7713737 L48.0232707,69.915767 C48.0232707,72.5092463 45.9573077,74.611399 43.4088762,74.611399 C40.8607688,74.611399 38.7948058,72.5092463 38.7948058,69.915767 L38.7948058,49.7713737 C38.7948058,47.1782241 40.8607688,45.0757417 43.4088762,45.0757417 L43.4088762,45.075412 Z M4.61439442,23.572451 C7.16250184,23.572451 9.22846482,25.6749335 9.22846482,28.2684128 L9.22846482,48.412806 C9.22846482,51.0062854 7.16250184,53.1087678 4.61439442,53.1087678 C2.06596298,53.1087678 0,51.0062854 0,48.4131358 L0,28.2687426 C-0.000324021798,25.6752632 2.06563896,23.572451 4.61439442,23.572451 Z M61.3859296,23.572451 C63.934037,23.572451 66,25.6749335 66,28.2684128 L66,48.412806 C66,51.0062854 63.934037,53.1087678 61.3859296,53.1087678 C58.8374982,53.1087678 56.7715352,51.0062854 56.7715352,48.4131358 L56.7715352,28.2687426 C56.7715352,25.6752632 58.8374982,23.572451 61.3859296,23.572451 Z M12.1916442,18.8514283 C12.3199568,9.47665177 20.3602337,1.79019235 30.680976,0.777202073 L35.318376,0.777202073 C45.6397663,1.7905221 53.6793952,9.47731127 53.8077078,18.8514283 L12.1916442,18.8514283 Z" fill="#43B1BD" fill-rule="nonzero"></path><path d="M13.734104,0 L18.6173398,8.5492228 M52.265896,0 L47.3823352,8.5492228" stroke="#4CA5AF" stroke-width="1.15363043" stroke-linecap="round" stroke-linejoin="round"></path><path d="M26.8835255,10.4922288 C26.887399,11.7762878 25.8257342,12.8202724 24.5119683,12.8238267 C23.198848,12.8270578 22.13105,11.7892124 22.1271765,10.5051534 L22.1271765,10.4922288 C22.1236258,9.20784661 23.1852907,8.16418513 24.4987338,8.16063087 C25.8118541,8.1570766 26.879652,9.19459889 26.8835255,10.4793042 L26.8835255,10.4922288 Z M44.6358276,10.4922288 C44.6397011,11.7762878 43.5780362,12.8202724 42.2642703,12.8238267 C40.95115,12.8270578 39.8833521,11.7892124 39.8794786,10.5051534 L39.8794786,10.4922288 C39.8759278,9.20784661 40.9375927,8.16418513 42.2510358,8.16063087 C43.5641561,8.1570766 44.6319541,9.19459889 44.6358276,10.4793042 L44.6358276,10.4922288 Z" fill="#FFFFFF" fill-rule="nonzero"></path></g></g></svg>